<svg xmlns="http://www.w3.org/2000/svg" width="371.753" height="148.551" viewBox="0 0 371.753 148.551"><defs><style>.a{fill:#18408f;}.b{fill:none;}.c,.d{stroke:none;}.d{fill:#fff;}</style></defs><g transform="translate(-905.487 -932.449)"><path class="a" d="M2510.24,147.55H2169.487L2425.051,0l85.188,147.551v0h0Z" transform="translate(-1264 932.449)"/><g class="b" transform="translate(-1233 933.449)"><path class="c" d="M2510.24,147.55H2169.487L2425.051,0l85.188,147.551v0h0Z"/><path class="d" d="M 2505.043212890625 144.5504913330078 L 2423.952880859375 4.098083972930908 L 2180.682861328125 144.5504913330078 L 2505.043212890625 144.5504913330078 M 2510.239501953125 147.550537109375 L 2510.239501953125 147.5504913330078 L 2510.239501953125 147.5504913330078 L 2510.239501953125 147.550537109375 Z M 2510.239501953125 147.550537109375 L 2510.239501953125 147.5504913330078 L 2510.239501953125 147.5504913330078 L 2510.239501953125 147.550537109375 Z M 2510.239501953125 147.5504913330078 L 2510.239501953125 147.550537109375 L 2510.23876953125 147.5489501953125 L 2510.239501953125 147.5504913330078 Z M 2510.239501953125 147.5504913330078 L 2169.48681640625 147.5504913330078 L 2425.051025390625 -1.180197978101205e-05 L 2510.239501953125 147.550537109375 L 2510.238525390625 147.549072265625 L 2510.239501953125 147.5504913330078 Z"/></g></g></svg>