<svg xmlns="http://www.w3.org/2000/svg" width="300" height="132" viewBox="0 0 300 132"><defs><style>.a{fill:#fff;}</style></defs><g transform="translate(-1363 -845)"><circle class="a" cx="6" cy="6" r="6" transform="translate(1363 845)"/><circle class="a" cx="6" cy="6" r="6" transform="translate(1387 845)"/><circle class="a" cx="6" cy="6" r="6" transform="translate(1411 845)"/><circle class="a" cx="6" cy="6" r="6" transform="translate(1435 845)"/><circle class="a" cx="6" cy="6" r="6" transform="translate(1459 845)"/><circle class="a" cx="6" cy="6" r="6" transform="translate(1483 845)"/><circle class="a" cx="6" cy="6" r="6" transform="translate(1507 845)"/><circle class="a" cx="6" cy="6" r="6" transform="translate(1531 845)"/><circle class="a" cx="6" cy="6" r="6" transform="translate(1555 845)"/><circle class="a" cx="6" cy="6" r="6" transform="translate(1579 845)"/><circle class="a" cx="6" cy="6" r="6" transform="translate(1603 845)"/><circle class="a" cx="6" cy="6" r="6" transform="translate(1627 845)"/><circle class="a" cx="6" cy="6" r="6" transform="translate(1651 845)"/><circle class="a" cx="6" cy="6" r="6" transform="translate(1363 869)"/><circle class="a" cx="6" cy="6" r="6" transform="translate(1387 869)"/><circle class="a" cx="6" cy="6" r="6" transform="translate(1411 869)"/><circle class="a" cx="6" cy="6" r="6" transform="translate(1435 869)"/><circle class="a" cx="6" cy="6" r="6" transform="translate(1459 869)"/><circle class="a" cx="6" cy="6" r="6" transform="translate(1483 869)"/><circle class="a" cx="6" cy="6" r="6" transform="translate(1507 869)"/><circle class="a" cx="6" cy="6" r="6" transform="translate(1531 869)"/><circle class="a" cx="6" cy="6" r="6" transform="translate(1555 869)"/><circle class="a" cx="6" cy="6" r="6" transform="translate(1579 869)"/><circle class="a" cx="6" cy="6" r="6" transform="translate(1603 869)"/><circle class="a" cx="6" cy="6" r="6" transform="translate(1627 869)"/><circle class="a" cx="6" cy="6" r="6" transform="translate(1651 869)"/><circle class="a" cx="6" cy="6" r="6" transform="translate(1363 893)"/><circle class="a" cx="6" cy="6" r="6" transform="translate(1387 893)"/><circle class="a" cx="6" cy="6" r="6" transform="translate(1411 893)"/><circle class="a" cx="6" cy="6" r="6" transform="translate(1435 893)"/><circle class="a" cx="6" cy="6" r="6" transform="translate(1459 893)"/><circle class="a" cx="6" cy="6" r="6" transform="translate(1483 893)"/><circle class="a" cx="6" cy="6" r="6" transform="translate(1507 893)"/><circle class="a" cx="6" cy="6" r="6" transform="translate(1531 893)"/><circle class="a" cx="6" cy="6" r="6" transform="translate(1555 893)"/><circle class="a" cx="6" cy="6" r="6" transform="translate(1579 893)"/><circle class="a" cx="6" cy="6" r="6" transform="translate(1603 893)"/><circle class="a" cx="6" cy="6" r="6" transform="translate(1627 893)"/><circle class="a" cx="6" cy="6" r="6" transform="translate(1651 893)"/><circle class="a" cx="6" cy="6" r="6" transform="translate(1363 917)"/><circle class="a" cx="6" cy="6" r="6" transform="translate(1387 917)"/><circle class="a" cx="6" cy="6" r="6" transform="translate(1411 917)"/><circle class="a" cx="6" cy="6" r="6" transform="translate(1435 917)"/><circle class="a" cx="6" cy="6" r="6" transform="translate(1459 917)"/><circle class="a" cx="6" cy="6" r="6" transform="translate(1483 917)"/><circle class="a" cx="6" cy="6" r="6" transform="translate(1507 917)"/><circle class="a" cx="6" cy="6" r="6" transform="translate(1531 917)"/><circle class="a" cx="6" cy="6" r="6" transform="translate(1555 917)"/><circle class="a" cx="6" cy="6" r="6" transform="translate(1579 917)"/><circle class="a" cx="6" cy="6" r="6" transform="translate(1603 917)"/><circle class="a" cx="6" cy="6" r="6" transform="translate(1627 917)"/><circle class="a" cx="6" cy="6" r="6" transform="translate(1651 917)"/><circle class="a" cx="6" cy="6" r="6" transform="translate(1363 941)"/><circle class="a" cx="6" cy="6" r="6" transform="translate(1387 941)"/><circle class="a" cx="6" cy="6" r="6" transform="translate(1411 941)"/><circle class="a" cx="6" cy="6" r="6" transform="translate(1435 941)"/><circle class="a" cx="6" cy="6" r="6" transform="translate(1459 941)"/><circle class="a" cx="6" cy="6" r="6" transform="translate(1483 941)"/><circle class="a" cx="6" cy="6" r="6" transform="translate(1507 941)"/><circle class="a" cx="6" cy="6" r="6" transform="translate(1531 941)"/><circle class="a" cx="6" cy="6" r="6" transform="translate(1555 941)"/><circle class="a" cx="6" cy="6" r="6" transform="translate(1579 941)"/><circle class="a" cx="6" cy="6" r="6" transform="translate(1603 941)"/><circle class="a" cx="6" cy="6" r="6" transform="translate(1627 941)"/><circle class="a" cx="6" cy="6" r="6" transform="translate(1651 941)"/><circle class="a" cx="6" cy="6" r="6" transform="translate(1363 965)"/><circle class="a" cx="6" cy="6" r="6" transform="translate(1387 965)"/><circle class="a" cx="6" cy="6" r="6" transform="translate(1411 965)"/><circle class="a" cx="6" cy="6" r="6" transform="translate(1435 965)"/><circle class="a" cx="6" cy="6" r="6" transform="translate(1459 965)"/><circle class="a" cx="6" cy="6" r="6" transform="translate(1483 965)"/><circle class="a" cx="6" cy="6" r="6" transform="translate(1507 965)"/><circle class="a" cx="6" cy="6" r="6" transform="translate(1531 965)"/><circle class="a" cx="6" cy="6" r="6" transform="translate(1555 965)"/><circle class="a" cx="6" cy="6" r="6" transform="translate(1579 965)"/><circle class="a" cx="6" cy="6" r="6" transform="translate(1603 965)"/><circle class="a" cx="6" cy="6" r="6" transform="translate(1627 965)"/><circle class="a" cx="6" cy="6" r="6" transform="translate(1651 965)"/></g></svg>